<svg width="132.7419921875px" height="292.4px" xmlns="http://www.w3.org/2000/svg" viewBox="183.62900390625 -71.19999999999999 132.7419921875 292.4" style="background: none;" preserveAspectRatio="xMidYMid"><defs><filter id="editing-hover" x="-100%" y="-100%" width="300%" height="300%"><feFlood flood-color="#073459" result="flood"></feFlood><feComposite operator="in" in2="SourceAlpha" in="flood" result="shadow"></feComposite><feOffset dx="2.2" dy="-1.3" in="SourceGraphic" result="offset-1"></feOffset><feOffset dx="-2.2" dy="1.3" in="shadow" result="offset-2"></feOffset><feMerge><feMergeNode in="offset-2"></feMergeNode><feMergeNode in="offset-1"></feMergeNode></feMerge></filter></defs><g filter="url(#editing-hover)"><g transform="translate(210.51273107528687, 123.90999794006348)"><path d="M22.72 2.29L22.72 2.03L22.72 2.03Q23.04-2.60 23.36-6.92L23.36-6.92L23.36-6.92Q23.68-11.24 23.93-15.30L23.93-15.30L26.22-45.26L26.22-45.26Q26.60-48.69 26.85-51.51L26.85-51.51L26.85-51.51Q27.10-54.34 27.26-57.03L27.26-57.03L27.26-57.03Q27.42-59.73 27.58-62.49L27.58-62.49L27.58-62.49Q27.74-65.25 27.93-68.62L27.93-68.62L27.93-68.62Q25.83-68.68 23.52-68.68L23.52-68.68L23.52-68.68Q21.20-68.68 18.66-68.68L18.66-68.68L6.41-68.68L6.41-68.68Q5.71-68.68 5.55-69.22L5.55-69.22L5.55-69.22Q5.40-69.76 5.40-70.21L5.40-70.21L5.40-70.65L12.38-88.99L12.31-89.25L12.31-89.25Q12.31-89.57 12.73-89.79L12.73-89.79L12.73-89.79Q13.14-90.01 14.60-90.14L14.60-90.14L14.60-90.14Q23.36-90.64 31.58-91.12L31.58-91.12L31.58-91.12Q39.80-91.60 47.83-91.98L47.83-91.98L47.83-91.98Q55.86-92.36 63.89-92.74L63.89-92.74L63.89-92.74Q71.92-93.12 80.42-93.44L80.42-93.44L80.42-93.44Q81.19-93.44 82.04-93.25L82.04-93.25L82.04-93.25Q82.90-93.06 82.90-91.85L82.90-91.85L82.90-91.85Q82.90-91.72 82.84-91.60L82.84-91.60L82.84-91.60Q82.77-91.47 82.77-91.34L82.77-91.34L82.77-91.34Q81.76-88.74 80.90-86.39L80.90-86.39L80.90-86.39Q80.04-84.04 79.22-81.76L79.22-81.76L79.22-81.76Q78.39-79.47 77.54-77.12L77.54-77.12L77.54-77.12Q76.68-74.78 75.66-72.17L75.66-72.17L75.66-72.17Q75.60-72.11 75.41-71.57L75.41-71.57L75.41-71.57Q75.22-71.03 74.84-70.36L74.84-70.36L74.84-70.36Q74.46-69.70 73.82-69.13L73.82-69.13L73.82-69.13Q73.19-68.55 72.24-68.49L72.24-68.49L72.24-68.49Q71.92-68.55 71.60-68.55L71.60-68.55L71.60-68.55Q71.28-68.55 70.90-68.55L70.90-68.55L53.96-68.55L53.96-68.55Q53.64-65.32 53.35-61.70L53.35-61.70L53.35-61.70Q53.07-58.08 52.69-54.65L52.69-54.65L48.05-5.08L48.05-5.08Q47.99-4.51 47.83-3.94L47.83-3.94L47.83-3.94Q47.67-3.36 46.97-3.11L46.97-3.11L29.01 3.36L29.01 3.36Q28.31 3.62 27.17 4.00L27.17 4.00L27.17 4.00Q26.03 4.38 24.95 4.38L24.95 4.38L24.95 4.38Q24.06 4.38 23.39 3.94L23.39 3.94L23.39 3.94Q22.72 3.49 22.72 2.29L22.72 2.29Z" fill="#ffd5af"></path></g></g><style>text {
  font-size: 64px;
  font-family: Arial Black;
  dominant-baseline: central;
  text-anchor: middle;
}</style></svg>