<svg width="169.259375px" height="292.4px" xmlns="http://www.w3.org/2000/svg" viewBox="165.3703125 -71.19999999999999 169.259375 292.4" style="background: none;" preserveAspectRatio="xMidYMid"><defs><filter id="editing-hover" x="-100%" y="-100%" width="300%" height="300%"><feFlood flood-color="#073459" result="flood"></feFlood><feComposite operator="in" in2="SourceAlpha" in="flood" result="shadow"></feComposite><feOffset dx="2.2" dy="-1.3" in="SourceGraphic" result="offset-1"></feOffset><feOffset dx="-2.2" dy="1.3" in="shadow" result="offset-2"></feOffset><feMerge><feMergeNode in="offset-2"></feMergeNode><feMergeNode in="offset-1"></feMergeNode></feMerge></filter></defs><g filter="url(#editing-hover)"><g transform="translate(194.55501317977905, 123.93999671936035)"><path d="M71.41-88.11L91.22-93.44L91.22-93.44Q91.53-93.50 91.82-93.53L91.82-93.53L91.82-93.53Q92.10-93.56 92.36-93.56L92.36-93.56L92.36-93.56Q93.50-93.56 94.20-92.83L94.20-92.83L94.20-92.83Q94.90-92.10 95.15-90.26L95.15-90.26L95.15-90.26Q95.28-89.12 95.56-87.06L95.56-87.06L95.56-87.06Q95.85-85.00 96.20-82.49L96.20-82.49L96.20-82.49Q96.55-79.98 96.96-77.31L96.96-77.31L96.96-77.31Q97.37-74.65 97.69-72.40L97.69-72.40L97.69-72.40Q98.01-70.14 98.26-68.52L98.26-68.52L98.26-68.52Q98.52-66.90 98.58-66.46L98.58-66.46L98.58-66.46Q99.98-55.22 101.05-48.43L101.05-48.43L101.05-48.43Q102.13-41.64 102.58-38.40L102.58-38.40L106.83-4.06L106.20-2.09L106.20-2.09Q106.07-1.65 104.55-1.02L104.55-1.02L104.55-1.02Q103.02-0.38 100.86 0.35L100.86 0.35L100.86 0.35Q98.71 1.08 96.17 1.78L96.17 1.78L96.17 1.78Q93.63 2.48 91.47 3.05L91.47 3.05L91.47 3.05Q89.31 3.62 87.82 3.97L87.82 3.97L87.82 3.97Q86.33 4.32 86.26 4.32L86.26 4.32L86.26 4.32Q84.74 4.32 83.85 2.09L83.85 2.09L83.85 2.09Q82.96-0.13 82.39-3.55L82.39-3.55L82.39-3.55Q81.82-6.98 81.47-11.04L81.47-11.04L81.47-11.04Q81.12-15.11 80.68-18.85L80.68-18.85L80.68-18.85Q80.30-21.96 79.98-25.14L79.98-25.14L79.98-25.14Q79.66-28.31 79.28-31.61L79.28-31.61L76.81-50.15L53.26-7.05L53.26-7.05Q52.18-5.52 51.10-4.86L51.10-4.86L51.10-4.86Q50.02-4.19 49.07-4.19L49.07-4.19L49.07-4.19Q47.67-4.19 46.88-5.01L46.88-5.01L46.88-5.01Q46.08-5.84 45.77-7.05L45.77-7.05L45.77-7.05Q44.56-11.04 43.70-13.81L43.70-13.81L43.70-13.81Q42.85-16.57 42.12-18.85L42.12-18.85L42.12-18.85Q41.39-21.14 40.75-23.30L40.75-23.30L40.75-23.30Q40.12-25.45 39.32-28.28L39.32-28.28L39.32-28.28Q38.53-31.10 37.55-34.94L37.55-34.94L37.55-34.94Q36.56-38.78 35.17-44.37L35.17-44.37L33.20-35.23L24.06 3.55L24.06 3.55Q23.87 4.32 22.47 4.32L22.47 4.32L22.47 4.32Q21.14 4.32 18.82 3.81L18.82 3.81L18.82 3.81Q16.50 3.30 14.00 2.57L14.00 2.57L14.00 2.57Q11.49 1.84 9.11 1.05L9.11 1.05L9.11 1.05Q6.73 0.25 5.33-0.38L5.33-0.38L5.33-0.38Q5.01-0.51 4.54-0.98L4.54-0.98L4.54-0.98Q4.06-1.46 4.06-2.48L4.06-2.48L4.06-2.48Q4.06-2.73 4.25-3.55L4.25-3.55L4.25-3.55Q4.44-4.38 4.73-5.49L4.73-5.49L4.73-5.49Q5.01-6.60 5.36-7.74L5.36-7.74L5.36-7.74Q5.71-8.89 6.03-9.78L6.03-9.78L6.03-9.78Q6.86-11.93 7.52-14.85L7.52-14.85L7.52-14.85Q8.19-17.77 8.76-20.76L8.76-20.76L8.76-20.76Q9.33-23.74 9.81-26.47L9.81-26.47L9.81-26.47Q10.28-29.20 10.73-31.04L10.73-31.04L18.54-67.48L20.88-77.76L20.88-77.76Q21.33-79.73 21.74-81.60L21.74-81.60L21.74-81.60Q22.15-83.47 22.47-85.00L22.47-85.00L22.47-85.00Q22.79-86.52 22.98-87.47L22.98-87.47L22.98-87.47Q23.17-88.42 23.17-88.55L23.17-88.55L39.04-93.44L39.04-93.44Q39.93-93.44 40.59-93.28L40.59-93.28L40.59-93.28Q41.26-93.12 41.45-92.23L41.45-92.23L54.08-51.61L71.41-88.11Z" fill="#ffd5af"></path></g></g><style>text {
  font-size: 64px;
  font-family: Arial Black;
  dominant-baseline: central;
  text-anchor: middle;
}</style></svg>